<svg width="393.666" height="282.14" xmlns="http://www.w3.org/2000/svg">

 <g>
  <title>background</title>
  <rect fill="none" id="canvas_background" height="284.14" width="395.666" y="-1" x="-1"/>
 </g>
 <g>
  <title>Layer 1</title>
  <g id="svg_1">
   <g id="svg_2">
    <polygon id="svg_3" points="227.35499572753906,170.11099243164062 63.61199951171875,278.4670104980469 63.68800354003906,186.4429931640625 235.35400390625,104.23300170898438 " fill="#00AEEF"/>
   </g>
   <g id="svg_4">
    <g id="svg_5">
     <g id="svg_6">
      <g id="svg_7">
       <polygon id="svg_8" points="12.38800048828125,215.12100219726562 135.20799255371094,153.906005859375 139.2100067138672,169.88699340820312 231.9080047607422,120.03300476074219 231.91099548339844,159.20700073242188 367.3760070800781,19.250999450683594 265.3680114746094,63.31999969482422 265.3680114746094,25.368999481201172 176.41900634765625,70.66400146484375 158.04400634765625,24.152000427246094 12.38800048828125,79.63800048828125 " fill="#F9ED32"/>
      </g>
      <g id="svg_9">
       <path id="svg_10" d="m7.388,223.199l0,-147.006l153.492,-58.472l18.17,45.992l91.318,-46.502l0,38.502l118.027,-50.989l-161.483,166.837l-0.003,-43.162l-90.988,48.933l-4.052,-16.176l-124.481,62.043zm10,-140.115l0,123.957l121.159,-60.387l3.952,15.785l94.408,-50.773l0.003,35.185l109.446,-113.072l-85.988,37.147l0,-37.4l-86.58,44.088l-18.58,-47.031l-137.82,52.501z" fill="#231F20"/>
      </g>
     </g>
    </g>
   </g>
   <g id="svg_11">
    <g id="svg_12">
     <g id="svg_13">
      <path id="svg_14" d="m198.093,102.078c0,7.662 -5.496,15.098 -11.062,17.955c-5.566,2.861 -8.879,3.879 -13.932,4.084c-5.045,0.205 -13.875,-6.209 -13.875,-13.871l0,-86.278c0,-7.66 6.214,-13.871 13.875,-13.871l11.122,0c7.661,0 13.872,6.211 13.872,13.871l0,78.11z" fill="#00AEEF"/>
     </g>
    </g>
    <g id="svg_15">
     <g id="svg_16">
      <path id="svg_17" d="m172.862,129.427c-8.348,0 -18.938,-9.035 -18.938,-19.182l0,-86.277c0,-10.574 8.604,-19.18 19.174,-19.18l11.122,0c10.575,0 19.177,8.605 19.177,19.18l0,78.109c0,10.186 -7.014,19.117 -13.945,22.678c-6.338,3.254 -10.411,4.43 -16.136,4.662c-0.154,0.004 -0.301,0.01 -0.454,0.01zm0.237,-114.027c-4.723,0 -8.565,3.844 -8.565,8.568l0,86.277c0,4.402 6.062,8.57 8.329,8.57l0.021,0c4.183,-0.168 6.7,-0.922 11.721,-3.5c3.939,-2.02 8.189,-7.654 8.189,-13.238l0,-78.109c0,-4.725 -3.849,-8.568 -8.573,-8.568l-11.122,0z" fill="#231F20"/>
     </g>
    </g>
   </g>
   <g id="svg_18">
    <g id="svg_19">
     <g id="svg_20">
      <path id="svg_21" d="m239.661,81.66c0,7.914 -2.922,13.332 -7.207,17.977c-4.081,4.428 -10.127,9.779 -17.783,9.779c-7.662,0 -13.875,-6.211 -13.875,-13.871l0,-61.79c0,-7.66 6.213,-13.871 13.875,-13.871l11.121,0c7.661,0 13.869,6.211 13.869,13.871l0,47.905z" fill="#00AEEF"/>
     </g>
    </g>
    <g id="svg_22">
     <g id="svg_23">
      <path id="svg_24" d="m214.671,114.718c-10.576,0 -19.178,-8.605 -19.178,-19.174l0,-61.789c0,-10.568 8.602,-19.174 19.178,-19.174l11.121,0c10.574,0 19.178,8.605 19.178,19.174l0,47.905c0,8.346 -2.738,15.199 -8.615,21.572c-2.624,2.842 -10.594,11.486 -21.684,11.486zm0,-89.525c-4.725,0 -8.568,3.846 -8.568,8.562l0,61.789c0,4.725 3.844,8.562 8.568,8.562c4.397,0 8.809,-2.562 13.885,-8.066c4.066,-4.41 5.803,-8.713 5.803,-14.381l0,-47.904c0,-4.717 -3.841,-8.562 -8.566,-8.562l-11.122,0z" fill="#231F20"/>
     </g>
    </g>
   </g>
   <g id="svg_25">
    <g id="svg_26">
     <g id="svg_27">
      <path id="svg_28" d="m156.526,116.376c0,7.66 -6.21,13.873 -13.879,13.873l-11.117,0c-7.661,0 -13.871,-6.213 -13.871,-13.873l0,-94.443c0,-7.66 6.21,-13.871 13.871,-13.871l11.117,0c7.669,0 13.879,6.211 13.879,13.871l0,94.443z" fill="#00AEEF"/>
     </g>
    </g>
    <g id="svg_29">
     <g id="svg_30">
      <path id="svg_31" d="m142.647,135.554l-11.117,0c-10.57,0 -19.174,-8.605 -19.174,-19.178l0,-94.443c0,-10.572 8.604,-19.18 19.174,-19.18l11.117,0c10.58,0 19.182,8.607 19.182,19.18l0,94.443c0,10.573 -8.601,19.178 -19.182,19.178zm-11.117,-122.191c-4.725,0 -8.566,3.848 -8.566,8.57l0,94.443c0,4.725 3.842,8.568 8.566,8.568l11.117,0c4.729,0 8.574,-3.844 8.574,-8.568l0,-94.443c0,-4.723 -3.846,-8.57 -8.574,-8.57l-11.117,0z" fill="#231F20"/>
     </g>
    </g>
   </g>
   <g id="svg_32">
    <g id="svg_33">
     <g id="svg_34">
      <path id="svg_35" d="m114.958,103.712c0,7.66 -6.211,13.871 -13.871,13.871l-8.676,0c-7.66,0 -13.87,-6.211 -13.87,-13.871l0,-69.941c0,-7.662 6.21,-13.873 13.87,-13.873l8.676,0c7.66,0 13.871,6.211 13.871,13.873l0,69.941z" fill="#00AEEF"/>
     </g>
    </g>
    <g id="svg_36">
     <g id="svg_37">
      <path id="svg_38" d="m101.087,122.884l-8.676,0c-10.57,0 -19.174,-8.6 -19.174,-19.172l0,-69.941c0,-10.576 8.604,-19.182 19.174,-19.182l8.676,0c10.572,0 19.174,8.605 19.174,19.182l0,69.941c0,10.573 -8.602,19.172 -19.174,19.172zm-8.676,-97.683c-4.721,0 -8.566,3.842 -8.566,8.57l0,69.941c0,4.725 3.846,8.568 8.566,8.568l8.676,0c4.721,0 8.565,-3.844 8.565,-8.568l0,-69.941c0,-4.729 -3.845,-8.57 -8.565,-8.57l-8.676,0z" fill="#231F20"/>
     </g>
    </g>
   </g>
   <g id="svg_39">
    <g id="svg_40">
     <g id="svg_41">
      <path id="svg_42" d="m64.612,210.221l0,-113.843l85.373,-53.645c0,0 14.189,23.855 -2.943,41.402c-17.142,17.547 -29.383,22.033 -29.383,22.033s29.383,29.385 21.627,67.336" fill="#00AEEF"/>
     </g>
    </g>
    <g id="svg_43">
     <g id="svg_44">
      <path id="svg_45" d="m64.612,279.561c-2.929,0 -5.305,-2.373 -5.305,-5.303l0,-180.813l92.459,-58.098l2.777,4.676c5.627,9.463 12.094,31.637 -3.71,47.816c-10.362,10.605 -19.106,16.703 -24.712,19.971c8.459,10.633 24.678,35.84 18.361,66.758c-0.586,2.867 -3.387,4.719 -6.258,4.135c-2.869,-0.584 -4.721,-3.393 -4.135,-6.26c7.097,-34.756 -19.906,-62.254 -20.182,-62.524l-5.873,-5.877l7.795,-2.855c0.092,-0.031 11.52,-4.488 27.412,-20.758c5.785,-5.92 7.975,-13.449 6.52,-22.369c-0.478,-2.912 -1.277,-5.531 -2.062,-7.627l-77.781,48.877l0,174.948c0,2.93 -2.376,5.303 -5.306,5.303z" fill="#231F20"/>
     </g>
    </g>
   </g>
  </g>
 </g>
</svg>